<svg width="28" height="28" viewBox="0 0 28 28" fill="none" xmlns="http://www.w3.org/2000/svg">
<path d="M6.79781 6.7993C6.39708 7.20629 6.13232 7.77809 5.98683 8.86512C5.83626 9.99006 5.83381 11.4814 5.83381 13.6267V14.3733C5.83381 16.5154 5.83626 18.0053 5.98683 19.1303C6.1323 20.2172 6.39718 20.792 6.79977 21.2026C7.20677 21.6034 7.77856 21.8682 8.86558 22.0137C9.99053 22.1642 11.4819 22.1667 13.6272 22.1667H14.3738C16.5158 22.1667 18.0058 22.1642 19.1307 22.0137C20.2176 21.8682 20.7924 21.6033 21.2032 21.2007C21.6039 20.7937 21.8686 20.2219 22.0141 19.135C22.1647 18.0099 22.1672 16.5186 22.1672 14.3733V13.6267C22.1672 11.4846 22.1647 9.99475 22.0141 8.86978C21.8686 7.78289 21.6038 7.20809 21.2012 6.79734C20.7941 6.3966 20.2223 6.13186 19.1354 5.98637C18.0105 5.83581 16.5191 5.83335 14.3738 5.83335H13.6272C11.485 5.83335 9.9952 5.83581 8.87025 5.98637C7.78337 6.13184 7.20857 6.39672 6.79781 6.7993ZM13.6272 3.50001H14.3738C16.0589 3.50001 17.7705 3.44954 19.4449 3.67366C20.7941 3.85425 21.9364 4.24129 22.8482 5.14449L22.858 5.15421C23.7593 6.06845 24.1462 7.21081 24.3268 8.56024C24.5508 10.2332 24.5005 11.9432 24.5005 13.6267V14.3733C24.5005 16.0585 24.5509 17.77 24.3268 19.4445C24.1462 20.7937 23.7592 21.9359 22.856 22.8478L22.8463 22.8576C21.932 23.7589 20.7897 24.1458 19.4402 24.3264C17.7673 24.5503 16.0573 24.5 14.3738 24.5H13.6272C11.942 24.5 10.2305 24.5505 8.55604 24.3264C7.20678 24.1458 6.06458 23.7587 5.15277 22.8556L5.14296 22.8458C4.24159 21.9316 3.85473 20.7892 3.67412 19.4398C3.4502 17.7668 3.50047 16.0569 3.50047 14.3733V13.6267C3.50047 11.9416 3.44999 10.2301 3.67412 8.55558C3.85471 7.20633 4.24174 6.06411 5.14495 5.15232L5.15466 5.14251C6.06892 4.24114 7.21126 3.85427 8.56071 3.67366C10.2337 3.44975 11.9436 3.50001 13.6272 3.50001ZM7.04263 9.89121C7.15463 15.3512 9.88463 18.6272 14.6726 18.6272H14.6796H14.9526V15.5052C16.7096 15.6802 18.0396 16.9682 18.5716 18.6272H21.0566C20.8017 17.6846 20.3499 16.8065 19.7309 16.0512C19.1119 15.2959 18.3399 14.6804 17.4656 14.2452C18.249 13.7682 18.9256 13.1347 19.4532 12.3843C19.9807 11.6339 20.3479 10.7828 20.5316 9.88421H18.2776C17.7876 11.6202 16.3316 13.1952 14.9526 13.3422V9.89121H12.6916V15.9392C11.2916 15.5892 9.52763 13.8952 9.45063 9.89121H7.04263Z" fill="#726CE6"/>
</svg>
