<svg width="28" height="28" viewBox="0 0 28 28" fill="none" xmlns="http://www.w3.org/2000/svg">
<path d="M8.46254 21.5768L9.30806 22.0698C10.7206 22.8935 12.3259 23.3333 14.0012 23.3333C19.1558 23.3333 23.3345 19.1547 23.3345 14C23.3345 8.84534 19.1558 4.66667 14.0012 4.66667C8.84648 4.66667 4.66781 8.84534 4.66781 14C4.66781 15.6757 5.10791 17.2816 5.9321 18.6944L6.42488 19.5391L5.66247 22.341L8.46254 21.5768ZM2.33935 25.6667L3.91664 19.8701C2.91076 18.1459 2.33447 16.1402 2.33447 14C2.33447 7.55667 7.55782 2.33333 14.0012 2.33333C20.4444 2.33333 25.6678 7.55667 25.6678 14C25.6678 20.4433 20.4444 25.6667 14.0012 25.6667C11.8616 25.6667 9.85659 25.0908 8.13267 24.0855L2.33935 25.6667ZM9.79104 8.52638C9.94723 8.51541 10.1039 8.51373 10.2604 8.52136C10.3235 8.52551 10.3864 8.53281 10.4494 8.54008C10.6352 8.56154 10.8395 8.67469 10.9082 8.83043C11.2562 9.61959 11.5939 10.4133 11.9212 11.2112C11.9934 11.3874 11.9499 11.6157 11.8125 11.8366C11.7427 11.9499 11.6332 12.1088 11.5062 12.2713C11.3743 12.4402 11.0903 12.7506 11.0903 12.7506C11.0903 12.7506 10.9753 12.8885 11.0186 13.0601C11.0355 13.125 11.0894 13.2195 11.1383 13.2989C11.1653 13.3429 11.1904 13.3822 11.2067 13.4094C11.5053 13.9079 11.9066 14.4133 12.3969 14.8885C12.5373 15.0247 12.6736 15.1636 12.8201 15.2927C13.3665 15.7744 13.9846 16.168 14.6522 16.4596L14.6581 16.4623C14.7567 16.5047 14.8073 16.5279 14.9516 16.5892C15.0244 16.62 15.0989 16.6466 15.1753 16.6668C15.2029 16.674 15.2313 16.6781 15.2598 16.6801C15.4484 16.6914 15.5575 16.5704 15.604 16.5148C16.4481 15.4922 16.5254 15.4254 16.5312 15.4259V15.4278C16.6421 15.3109 16.8166 15.2703 16.9722 15.2798C17.0432 15.2841 17.1139 15.2978 17.1786 15.3273C17.799 15.6103 18.8134 16.0518 18.8134 16.0518L19.4918 16.3568C19.6055 16.4116 19.7092 16.5408 19.7142 16.6663C19.7172 16.7444 19.7256 16.8703 19.6978 17.1009C19.6612 17.4027 19.5694 17.7661 19.4782 17.9565C19.414 18.0901 19.331 18.2086 19.2344 18.309C19.1033 18.445 19.006 18.5276 18.8485 18.645C18.7526 18.7164 18.7029 18.75 18.7029 18.75C18.5409 18.8522 18.4495 18.9033 18.2565 19.006C17.9562 19.166 17.6244 19.2579 17.2845 19.2754C17.0679 19.2865 16.8518 19.3022 16.6354 19.2905C16.6258 19.2899 15.9725 19.1896 15.9725 19.1896C14.3136 18.7532 12.7794 17.9359 11.4921 16.8023C11.2288 16.5706 10.9847 16.3199 10.7356 16.0719C9.69836 15.0393 8.91312 13.9258 8.43697 12.8725C8.20216 12.3531 8.05348 11.7969 8.05114 11.2245C8.04683 10.5164 8.27865 9.82707 8.70997 9.2655C8.79499 9.1548 8.87569 9.03997 9.01493 8.9085C9.16239 8.76926 9.25624 8.69451 9.35733 8.64279C9.49208 8.57386 9.64008 8.53699 9.79104 8.52638Z" fill="#726CE6"/>
</svg>
