<svg width="28" height="28" viewBox="0 0 28 28" fill="none" xmlns="http://www.w3.org/2000/svg">
<path d="M23.3335 14C23.3335 19.1547 19.1548 23.3333 14.0002 23.3333C8.8455 23.3333 4.66683 19.1547 4.66683 14C4.66683 8.84534 8.8455 4.66666 14.0002 4.66666C19.1548 4.66666 23.3335 8.84534 23.3335 14ZM14.0002 25.6667C20.4434 25.6667 25.6668 20.4433 25.6668 14C25.6668 7.55667 20.4434 2.33333 14.0002 2.33333C7.55684 2.33333 2.3335 7.55667 2.3335 14C2.3335 20.4433 7.55684 25.6667 14.0002 25.6667ZM14.4183 10.9462C13.2835 11.4182 11.0156 12.3951 7.61453 13.8769C7.06224 14.0965 6.77294 14.3114 6.7466 14.5214C6.70209 14.8765 7.14671 15.0163 7.75217 15.2067C7.83453 15.2326 7.91987 15.2594 8.00735 15.2879C8.60302 15.4814 9.40432 15.708 9.82088 15.717C10.1987 15.7251 10.6205 15.5694 11.0861 15.2496C14.2638 13.1046 15.9042 12.0204 16.0072 11.9971C16.0799 11.9805 16.1805 11.9598 16.2487 12.0204C16.3169 12.0811 16.3102 12.1959 16.303 12.2267C16.2589 12.4145 14.5136 14.0371 13.6104 14.8767C13.3411 15.1271 13.0786 15.3828 12.814 15.6379C12.2607 16.1713 11.8457 16.5713 12.837 17.2247C13.842 17.887 14.8545 18.5479 15.8346 19.2466C16.318 19.5912 16.7523 19.9009 17.2888 19.8515C17.6006 19.8228 17.9226 19.5296 18.0861 18.6553C18.4726 16.5892 19.2323 12.1124 19.4079 10.2676C19.4233 10.106 19.4039 9.89916 19.3884 9.80836C19.3729 9.71756 19.3403 9.58818 19.2224 9.4924C19.0825 9.37898 18.8668 9.35506 18.7703 9.35677C18.3314 9.3645 17.6582 9.59859 14.4183 10.9462Z" fill="#726CE6"/>
</svg>
