<svg width="28" height="29" viewBox="0 0 28 29" fill="none" xmlns="http://www.w3.org/2000/svg">
<path d="M23.3335 14.5C23.3335 19.6547 19.1548 23.8333 14.0002 23.8333C8.8455 23.8333 4.66683 19.6547 4.66683 14.5C4.66683 9.34535 8.8455 5.16668 14.0002 5.16668C19.1548 5.16668 23.3335 9.34535 23.3335 14.5ZM14.0002 26.1667C20.4434 26.1667 25.6668 20.9433 25.6668 14.5C25.6668 8.05669 20.4434 2.83334 14.0002 2.83334C7.55684 2.83334 2.3335 8.05669 2.3335 14.5C2.3335 20.9433 7.55684 26.1667 14.0002 26.1667ZM14.4183 11.4462C13.2835 11.9182 11.0156 12.8951 7.61453 14.3769C7.06224 14.5965 6.77294 14.8114 6.7466 15.0214C6.70209 15.3765 7.14671 15.5163 7.75217 15.7067C7.83453 15.7326 7.91987 15.7594 8.00735 15.7879C8.60302 15.9814 9.40432 16.208 9.82088 16.217C10.1987 16.2252 10.6205 16.0694 11.0861 15.7496C14.2638 13.6046 15.9042 12.5204 16.0072 12.4971C16.0799 12.4805 16.1805 12.4599 16.2487 12.5204C16.3169 12.5811 16.3102 12.6959 16.303 12.7267C16.2589 12.9145 14.5136 14.5371 13.6104 15.3768C13.3411 15.6271 13.0786 15.8829 12.814 16.1379C12.2607 16.6713 11.8457 17.0713 12.837 17.7247C13.842 18.387 14.8545 19.0479 15.8346 19.7466C16.318 20.0913 16.7523 20.4009 17.2888 20.3515C17.6006 20.3228 17.9226 20.0297 18.0861 19.1554C18.4726 17.0892 19.2323 12.6125 19.4079 10.7676C19.4233 10.606 19.4039 10.3992 19.3884 10.3084C19.3729 10.2176 19.3403 10.0882 19.2224 9.99242C19.0825 9.879 18.8668 9.85508 18.7703 9.85678C18.3314 9.86452 17.6582 10.0986 14.4183 11.4462Z" fill="white"/>
</svg>
