<svg width="28" height="29" viewBox="0 0 28 29" fill="none" xmlns="http://www.w3.org/2000/svg">
<path d="M6.79781 7.2993C6.39708 7.70629 6.13232 8.27809 5.98683 9.36512C5.83626 10.4901 5.83381 11.9814 5.83381 14.1267V14.8733C5.83381 17.0154 5.83626 18.5053 5.98683 19.6303C6.1323 20.7172 6.39718 21.292 6.79977 21.7026C7.20677 22.1034 7.77856 22.3682 8.86558 22.5137C9.99053 22.6642 11.4819 22.6667 13.6272 22.6667H14.3738C16.5158 22.6667 18.0058 22.6642 19.1307 22.5137C20.2176 22.3682 20.7924 22.1033 21.2032 21.7007C21.6039 21.2937 21.8686 20.7219 22.0141 19.635C22.1647 18.5099 22.1672 17.0186 22.1672 14.8733V14.1267C22.1672 11.9846 22.1647 10.4948 22.0141 9.36978C21.8686 8.28289 21.6038 7.70809 21.2012 7.29734C20.7941 6.8966 20.2223 6.63186 19.1354 6.48637C18.0105 6.33581 16.5191 6.33335 14.3738 6.33335H13.6272C11.485 6.33335 9.9952 6.33581 8.87025 6.48637C7.78337 6.63184 7.20857 6.89672 6.79781 7.2993ZM13.6272 4.00001H14.3738C16.0589 4.00001 17.7705 3.94954 19.4449 4.17366C20.7941 4.35425 21.9364 4.74129 22.8482 5.64449L22.858 5.65421C23.7593 6.56845 24.1462 7.71081 24.3268 9.06024C24.5508 10.7332 24.5005 12.4432 24.5005 14.1267V14.8733C24.5005 16.5585 24.5509 18.27 24.3268 19.9445C24.1462 21.2937 23.7592 22.4359 22.856 23.3478L22.8463 23.3576C21.932 24.2589 20.7897 24.6458 19.4402 24.8264C17.7673 25.0503 16.0573 25 14.3738 25H13.6272C11.942 25 10.2305 25.0505 8.55604 24.8264C7.20678 24.6458 6.06458 24.2587 5.15277 23.3556L5.14296 23.3458C4.24159 22.4316 3.85473 21.2892 3.67412 19.9398C3.4502 18.2668 3.50047 16.5569 3.50047 14.8733V14.1267C3.50047 12.4416 3.44999 10.7301 3.67412 9.05558C3.85471 7.70633 4.24174 6.56411 5.14495 5.65232L5.15466 5.64251C6.06892 4.74114 7.21126 4.35427 8.56071 4.17366C10.2337 3.94975 11.9436 4.00001 13.6272 4.00001ZM7.04263 10.3912C7.15463 15.8512 9.88463 19.1272 14.6726 19.1272H14.6796H14.9526V16.0052C16.7096 16.1802 18.0396 17.4682 18.5716 19.1272H21.0566C20.8017 18.1846 20.3499 17.3065 19.7309 16.5512C19.1119 15.7959 18.3399 15.1804 17.4656 14.7452C18.249 14.2682 18.9256 13.6347 19.4532 12.8843C19.9807 12.1339 20.3479 11.2828 20.5316 10.3842H18.2776C17.7876 12.1202 16.3316 13.6952 14.9526 13.8422V10.3912H12.6916V16.4392C11.2916 16.0892 9.52763 14.3952 9.45063 10.3912H7.04263Z" fill="white"/>
</svg>
