<svg width="28" height="29" viewBox="0 0 28 29" fill="none" xmlns="http://www.w3.org/2000/svg">
<path d="M8.46254 22.0768L9.30806 22.5698C10.7206 23.3935 12.3259 23.8333 14.0012 23.8333C19.1558 23.8333 23.3345 19.6547 23.3345 14.5C23.3345 9.34535 19.1558 5.16668 14.0012 5.16668C8.84648 5.16668 4.66781 9.34535 4.66781 14.5C4.66781 16.1757 5.10791 17.7816 5.9321 19.1944L6.42488 20.0391L5.66247 22.841L8.46254 22.0768ZM2.33935 26.1667L3.91664 20.3701C2.91076 18.6459 2.33447 16.6403 2.33447 14.5C2.33447 8.05669 7.55782 2.83334 14.0012 2.83334C20.4444 2.83334 25.6678 8.05669 25.6678 14.5C25.6678 20.9433 20.4444 26.1667 14.0012 26.1667C11.8616 26.1667 9.85659 25.5908 8.13267 24.5855L2.33935 26.1667ZM9.79104 9.0264C9.94723 9.01542 10.1039 9.01374 10.2604 9.02137C10.3235 9.02552 10.3864 9.03282 10.4494 9.04009C10.6352 9.06155 10.8395 9.1747 10.9082 9.33044C11.2562 10.1196 11.5939 10.9133 11.9212 11.7112C11.9934 11.8874 11.9499 12.1157 11.8125 12.3367C11.7427 12.4499 11.6332 12.6088 11.5062 12.7714C11.3743 12.9402 11.0903 13.2506 11.0903 13.2506C11.0903 13.2506 10.9753 13.3885 11.0186 13.5601C11.0355 13.625 11.0894 13.7195 11.1383 13.799C11.1653 13.8429 11.1904 13.8823 11.2067 13.9094C11.5053 14.408 11.9066 14.9134 12.3969 15.3885C12.5373 15.5247 12.6736 15.6636 12.8201 15.7927C13.3665 16.2744 13.9846 16.668 14.6522 16.9596L14.6581 16.9623C14.7567 17.0047 14.8073 17.0279 14.9516 17.0892C15.0244 17.12 15.0989 17.1466 15.1753 17.1668C15.2029 17.174 15.2313 17.1781 15.2598 17.1801C15.4484 17.1914 15.5575 17.0704 15.604 17.0148C16.4481 15.9922 16.5254 15.9254 16.5312 15.9259V15.9278C16.6421 15.8109 16.8166 15.7703 16.9722 15.7798C17.0432 15.7842 17.1139 15.7978 17.1786 15.8273C17.799 16.1104 18.8134 16.5518 18.8134 16.5518L19.4918 16.8568C19.6055 16.9116 19.7092 17.0408 19.7142 17.1663C19.7172 17.2444 19.7256 17.3704 19.6978 17.6009C19.6612 17.9027 19.5694 18.2661 19.4782 18.4565C19.414 18.5901 19.331 18.7086 19.2344 18.809C19.1033 18.945 19.006 19.0276 18.8485 19.145C18.7526 19.2164 18.7029 19.25 18.7029 19.25C18.5409 19.3522 18.4495 19.4033 18.2565 19.5061C17.9562 19.666 17.6244 19.7579 17.2845 19.7754C17.0679 19.7865 16.8518 19.8022 16.6354 19.7905C16.6258 19.7899 15.9725 19.6896 15.9725 19.6896C14.3136 19.2532 12.7794 18.4359 11.4921 17.3023C11.2288 17.0706 10.9847 16.8199 10.7356 16.5719C9.69836 15.5393 8.91312 14.4258 8.43697 13.3725C8.20216 12.8531 8.05348 12.2969 8.05114 11.7245C8.04683 11.0164 8.27865 10.3271 8.70997 9.76551C8.79499 9.65481 8.87569 9.53999 9.01493 9.40851C9.16239 9.26927 9.25624 9.19452 9.35733 9.14281C9.49208 9.07387 9.64008 9.037 9.79104 9.0264Z" fill="white"/>
</svg>
