<svg width="28" height="29" viewBox="0 0 28 29" fill="none" xmlns="http://www.w3.org/2000/svg">
<path d="M22.8747 8.66064C22.7858 8.31313 22.5344 8.05093 22.2465 7.97005C21.7349 7.82741 19.2512 7.50002 14.0012 7.50002C8.75114 7.50002 6.26794 7.82754 5.75429 7.97046C5.46905 8.04979 5.21768 8.31194 5.12761 8.66064C5.00068 9.15579 4.66781 11.2286 4.66781 14.5C4.66781 17.7714 5.00068 19.8443 5.12796 20.3408C5.21647 20.687 5.46788 20.9491 5.75459 21.0296C6.26794 21.1725 8.75114 21.5 14.0012 21.5C19.2512 21.5 21.7349 21.1727 22.248 21.0296C22.5332 20.9503 22.7846 20.6881 22.8747 20.3394C23.0016 19.8443 23.3345 17.7667 23.3345 14.5C23.3345 11.2334 23.0016 9.15579 22.8747 8.66064ZM25.1349 8.08123C25.6678 10.16 25.6678 14.5 25.6678 14.5C25.6678 14.5 25.6678 18.84 25.1349 20.9188C24.838 22.0685 23.9715 22.9721 22.8732 23.2776C20.8799 23.8334 14.0012 23.8334 14.0012 23.8334C14.0012 23.8334 7.12643 23.8334 5.12909 23.2776C4.0267 22.9679 3.16025 22.0642 2.86736 20.9188C2.33447 18.84 2.33447 14.5 2.33447 14.5C2.33447 14.5 2.33447 10.16 2.86736 8.08123C3.16431 6.93154 4.03077 6.0279 5.12909 5.72244C7.12643 5.16669 14.0012 5.16669 14.0012 5.16669C14.0012 5.16669 20.8799 5.16669 22.8732 5.72244C23.9756 6.03214 24.8421 6.93577 25.1349 8.08123ZM11.6678 18.5834V10.4167L18.6678 14.5L11.6678 18.5834Z" fill="white"/>
</svg>
