<svg width="32" height="32" viewBox="0 0 32 32" fill="none" xmlns="http://www.w3.org/2000/svg">
<g clip-path="url(#clip0_367_95)">
<path d="M32 23.9999C32 24.9429 31.6254 25.8473 30.9586 26.5141C30.2918 27.1808 29.3874 27.5555 28.4445 27.5555H21.3333V4.44434H28.4445C29.3874 4.44434 30.2918 4.81894 30.9586 5.48573C31.6254 6.15253 32 7.0569 32 7.99989V23.9999Z" fill="#ED2939"/>
<path d="M3.55556 4.44434C2.61256 4.44434 1.70819 4.81894 1.0414 5.48573C0.374602 6.15253 0 7.0569 0 7.99989L0 23.9999C0 24.9429 0.374602 25.8473 1.0414 26.5141C1.70819 27.1808 2.61256 27.5555 3.55556 27.5555H10.6667V4.44434H3.55556Z" fill="#002495"/>
<path d="M10.6667 4.44434H21.3333V27.5555H10.6667V4.44434Z" fill="#EEEEEE"/>
</g>
<defs>
<clipPath id="clip0_367_95">
<rect width="32" height="32" fill="white"/>
</clipPath>
</defs>
</svg>
