<svg width="32" height="32" viewBox="0 0 32 32" fill="none" xmlns="http://www.w3.org/2000/svg">
<path d="M32 21.5C32 24.5375 30.3135 27 27 27H5C1.6865 27 0 24.5375 0 21.5V10.5C0 7.4625 1.6865 5 5 5H27C30.3135 5 32 7.4625 32 10.5V21.5Z" fill="#EC1C24"/>
<path d="M6.48549 8.32807L7.55499 10.5001L9.95249 10.8476L8.21899 12.5351L8.62749 14.9251L6.48549 13.7976L4.34299 14.9251L4.75199 12.5351L3.01999 10.8476L5.41349 10.5001L6.48549 8.32807ZM10.2535 6.49707L10.55 7.09957L11.217 7.19607L10.7355 7.66557L10.848 8.32807L10.2535 8.01507L9.65949 8.32807L9.77199 7.66557L9.29099 7.19607L9.95649 7.09957L10.2535 6.49707ZM12.179 8.66407L12.476 9.26607L13.14 9.36307L12.6605 9.83357L12.7735 10.4951L12.179 10.1826L11.585 10.4951L11.6975 9.83357L11.217 9.36307L11.8815 9.26607L12.179 8.66407ZM12.179 12.1421L12.476 12.7456L13.14 12.8421L12.6605 13.3116L12.7735 13.9741L12.179 13.6621L11.585 13.9741L11.6975 13.3116L11.217 12.8421L11.8815 12.7456L12.179 12.1421ZM10.2535 14.5851L10.55 15.1876L11.217 15.2836L10.7355 15.7526L10.848 16.4161L10.2535 16.1051L9.65949 16.4161L9.77199 15.7526L9.29099 15.2836L9.95649 15.1876L10.2535 14.5851Z" fill="#F9CB38"/>
</svg>
