<svg width="32" height="32" viewBox="0 0 32 32" fill="none" xmlns="http://www.w3.org/2000/svg">
<g clip-path="url(#clip0_367_103)">
<path d="M31.7262 25.367H0.273778C0.54368 26.015 0.999349 26.5686 1.58336 26.958C2.16738 27.3475 2.8536 27.5554 3.55556 27.5555H28.4444C29.1464 27.5554 29.8326 27.3475 30.4166 26.958C31.0007 26.5686 31.4563 26.015 31.7262 25.367ZM0 21.1652H32V23.4417H0V21.1652ZM10.2222 8.559H32V10.8354H10.2222V8.559ZM31.7262 6.63278C31.4563 5.98479 31.0007 5.43119 30.4166 5.04174C29.8326 4.65229 29.1464 4.44442 28.4444 4.44434H10.2222V6.63278H31.7262ZM10.2222 12.7608H32V15.0372H10.2222V12.7608ZM0 16.9626H32V19.239H0V16.9626Z" fill="#BF0A30"/>
<path d="M10.2222 10.8346H32V12.7608H10.2222V10.8346ZM0 15.0373V16.9626H32V15.0373H10.6667H0ZM10.2222 6.63281V8.55903H32V7.99992C32 7.51548 31.9013 7.05415 31.7262 6.63281H10.2222ZM0 19.239H32V21.1653H0V19.239ZM0 23.9999C0 24.4844 0.0986667 24.9457 0.273778 25.367H31.7253C31.9062 24.9339 31.9996 24.4693 32 23.9999V23.4408H0V23.9999Z" fill="#EEEEEE"/>
<path d="M3.55556 4.44434C2.61256 4.44434 1.70819 4.81894 1.0414 5.48573C0.374602 6.15253 0 7.0569 0 7.99989L0 15.0372H10.6667V4.44434H3.55556Z" fill="#002868"/>
<path d="M6.0391 9.10661L5.33332 6.93506L4.62755 9.10661H2.34488L4.19199 10.4488L3.48621 12.6204L5.33332 11.2782L7.18044 12.6204L6.47466 10.4488L8.32177 9.10661H6.0391Z" fill="white"/>
</g>
<defs>
<clipPath id="clip0_367_103">
<rect width="32" height="32" fill="white"/>
</clipPath>
</defs>
</svg>
