<svg width="46" height="46" viewBox="0 0 46 46" fill="none" xmlns="http://www.w3.org/2000/svg">
<path d="M10.7579 30.3762C15.0221 29.1209 18.5784 29.2958 21.3279 30.8956C21.328 30.8956 21.328 30.8956 21.3281 30.8957C21.5287 31.0123 21.7488 31.0706 21.9689 31.0706C22.1891 31.0706 22.4094 31.0123 22.6102 30.8956C25.3597 29.2958 28.916 29.1209 33.1802 30.3762C33.3975 30.4399 33.6323 30.398 33.8137 30.2622C33.9951 30.1265 34.1019 29.9132 34.1019 29.6867V14.7516C34.1019 14.4328 33.8919 14.1522 33.5861 14.0621C28.9683 12.703 25.0629 12.9082 21.969 14.671C18.8752 12.9081 14.9697 12.7028 10.352 14.0621C10.0462 14.1522 9.83618 14.4328 9.83618 14.7516V29.6867C9.83618 29.9132 9.943 30.1266 10.1244 30.2622C10.3058 30.398 10.5407 30.4399 10.7579 30.3762ZM30.2816 16.1918C30.6758 16.2383 30.9575 16.5957 30.911 16.9899C30.8645 17.384 30.5076 17.6661 30.1129 17.6193C28.6104 17.4419 27.0221 17.5678 25.3927 17.9935C25.3318 18.0094 25.2707 18.0171 25.2105 18.0171C24.8914 18.0171 24.6 17.803 24.5156 17.4799C24.4152 17.0958 24.6452 16.7031 25.0293 16.6027C26.8328 16.1315 28.6 15.9933 30.2816 16.1918ZM25.0388 22.5087C26.737 22.0895 28.5044 21.9968 30.2914 22.233C30.685 22.285 30.9619 22.6462 30.9098 23.0398C30.8577 23.4334 30.4967 23.7099 30.1031 23.6581C28.4947 23.4456 26.9067 23.5284 25.3834 23.9043C25.3255 23.9185 25.2676 23.9254 25.2106 23.9254C24.8877 23.9254 24.5942 23.7062 24.5133 23.3787C24.4181 22.9934 24.6534 22.6039 25.0388 22.5087ZM25.0335 19.5556C26.7855 19.109 28.5531 18.9935 30.2872 19.2124C30.681 19.262 30.9601 19.6216 30.9104 20.0154C30.8607 20.4093 30.5005 20.6879 30.1074 20.6385C28.5528 20.4424 26.9653 20.5468 25.3887 20.9485C25.3291 20.9637 25.2694 20.971 25.2107 20.971C24.8899 20.971 24.5976 20.7546 24.5148 20.4296C24.4165 20.0448 24.6489 19.6535 25.0335 19.5556ZM25.0453 25.4626C26.6888 25.073 28.4549 25.0028 30.2943 25.2536C30.6877 25.3074 30.9629 25.6696 30.9094 26.0629C30.8558 26.4563 30.4929 26.7314 30.1001 26.678C28.4367 26.4512 26.8475 26.5129 25.3767 26.8614C25.321 26.8746 25.2652 26.881 25.2103 26.881C24.8848 26.881 24.5899 26.6583 24.5116 26.3278C24.4201 25.9415 24.659 25.5542 25.0453 25.4626ZM13.6567 16.1918C15.3383 15.9933 17.1053 16.1315 18.9089 16.6027C19.293 16.7031 19.5229 17.0958 19.4226 17.4799C19.3381 17.8031 19.0467 18.0171 18.7277 18.0171C18.6676 18.0171 18.6064 18.0095 18.5455 17.9935C16.9161 17.5678 15.328 17.4417 13.8252 17.6193C13.4308 17.6661 13.0737 17.384 13.0272 16.9899C12.9806 16.5957 13.2625 16.2383 13.6567 16.1918ZM19.4266 26.3277C19.3482 26.6582 19.0533 26.8809 18.7278 26.8809C18.6729 26.8809 18.6172 26.8746 18.5614 26.8613C17.0907 26.5127 15.5015 26.4511 13.8381 26.6779C13.445 26.7313 13.0824 26.4562 13.0288 26.0628C12.9751 25.6695 13.2505 25.3072 13.6438 25.2535C15.4833 25.0026 17.2494 25.0729 18.8929 25.4625C19.2792 25.5542 19.5181 25.9415 19.4266 26.3277ZM13.6468 22.233C15.434 21.9968 17.2011 22.0895 18.8994 22.5087C19.2849 22.6039 19.5202 22.9934 19.425 23.3788C19.3442 23.7063 19.0506 23.9255 18.7277 23.9255C18.6707 23.9255 18.6128 23.9186 18.555 23.9044C17.0316 23.5283 15.4437 23.4455 13.8352 23.6582C13.4414 23.71 13.0805 23.4334 13.0285 23.0399C12.9764 22.6463 13.2532 22.2851 13.6468 22.233ZM13.651 19.2124C15.3852 18.9936 17.1528 19.1091 18.9047 19.5556C19.2894 19.6536 19.5218 20.0448 19.4237 20.4296C19.3408 20.7547 19.0485 20.971 18.7277 20.971C18.669 20.971 18.6093 20.9637 18.5498 20.9485C16.9732 20.5467 15.3856 20.4424 13.8311 20.6385C13.4374 20.6886 13.0777 20.4093 13.0281 20.0154C12.9782 19.6216 13.2572 19.262 13.651 19.2124ZM45.482 39.6631L41.7958 36.8145C41.4604 36.5553 41.017 36.5098 40.6384 36.6958C40.2572 36.883 40.0206 37.2627 40.0208 37.686V38.3408H34.6837C35.3299 37.8322 35.9502 37.2827 36.5406 36.6923C40.4329 32.8 42.5765 27.6251 42.5765 22.1209C42.5765 16.6166 40.4329 11.4418 36.5406 7.54946C32.6483 3.65716 27.4734 1.51367 21.9691 1.51367C16.4649 1.51367 11.2899 3.65725 7.39764 7.54955C3.50543 11.4418 1.36185 16.6167 1.36185 22.1209C1.36185 23.2344 1.45151 24.3492 1.62877 25.4431L0.83168 25.7193C0.431336 25.858 0.150394 26.2058 0.0982851 26.6271C0.0466249 27.0456 0.234758 27.4496 0.589191 27.6815L4.48787 30.2321C4.77555 30.4204 5.12666 30.4637 5.45136 30.3514C5.77605 30.2389 6.02519 29.9874 6.1348 29.6614L7.61955 25.2455C7.75459 24.8438 7.65235 24.41 7.35272 24.1131C7.05093 23.8144 6.61465 23.7149 6.21485 23.8539L5.85457 23.9787C5.78459 23.3634 5.74928 22.7414 5.74928 22.1208C5.74928 13.1771 13.0255 5.90083 21.9692 5.90083C30.9129 5.90083 38.1891 13.177 38.1891 22.1208C38.1891 31.0645 30.9129 38.3407 21.9692 38.3407H0.80868C0.41175 38.3407 0.0899296 38.6625 0.0899296 39.0595V42.0094C0.0899296 42.4063 0.41175 42.7281 0.80868 42.7281H40.0208V43.3831C40.0208 43.8068 40.2575 44.1861 40.6386 44.3733C40.7931 44.4492 40.9583 44.4865 41.1227 44.4865C41.3609 44.4865 41.5972 44.408 41.7956 44.2547L45.482 41.406C45.7541 41.1958 45.9102 40.8781 45.9102 40.5344C45.9102 40.1909 45.7541 39.8733 45.482 39.6631ZM1.52743 41.2907V39.7783H21.9691C31.7054 39.7783 39.6265 31.8572 39.6265 22.1209C39.6265 12.3845 31.7055 4.46351 21.9691 4.46351C12.2328 4.46351 4.31169 12.3846 4.31169 22.121C4.31169 23.1074 4.3938 24.0972 4.55579 25.0629C4.59074 25.2715 4.71589 25.4542 4.89783 25.5621C5.07976 25.6701 5.30006 25.6925 5.49996 25.6232L6.03884 25.4365L4.91086 28.7911L1.94898 26.8535L2.67896 26.6006C3.01686 26.4835 3.21721 26.1359 3.14929 25.7849C2.91713 24.5852 2.79935 23.3525 2.79935 22.121C2.79935 11.5507 11.3989 2.95117 21.9692 2.95117C32.5394 2.95117 41.139 11.5507 41.139 22.121C41.139 32.6912 32.5395 41.2908 21.9692 41.2908L1.52743 41.2907ZM41.4583 42.6987V42.0095C41.4583 41.6126 41.1365 41.2907 40.7396 41.2907H29.5572C30.6125 40.8732 31.6324 40.3683 32.6076 39.7783H40.7396C41.1365 39.7783 41.4583 39.4565 41.4583 39.0596V38.3704L44.2589 40.5345L41.4583 42.6987Z" fill="#5034A3"/>
</svg>
