<svg width="46" height="46" viewBox="0 0 46 46" fill="none" xmlns="http://www.w3.org/2000/svg">
<path d="M41.4844 4.19908H35.6587V2.99892C35.6587 2.44242 35.2077 1.99146 34.6512 1.99146C34.0947 1.99146 33.6433 2.44242 33.6433 2.99892V4.19908H24.0077V2.99892C24.0077 2.44242 23.5567 1.99146 23.0002 1.99146C22.4433 1.99146 21.9923 2.44242 21.9923 2.99892V4.19908H12.3566V2.99892C12.3566 2.44242 11.9053 1.99146 11.3488 1.99146C10.7923 1.99146 10.3413 2.44242 10.3413 2.99892V4.19908H4.5156C2.02293 4.20188 0.00279852 6.22201 0 8.71469V42.9829C0 43.5394 0.45136 43.9908 1.00786 43.9908H44.9921C45.549 43.9908 46 43.5394 46 42.9829V8.71469C45.9972 6.22201 43.9771 4.20188 41.4844 4.19908ZM2.01533 8.71469C2.01693 7.33462 3.13554 6.21641 4.5156 6.21441H10.3413V7.41458C10.3413 7.97148 10.7923 8.42244 11.3488 8.42244C11.9053 8.42244 12.3566 7.97148 12.3566 7.41458V6.21441H21.9923V7.41458C21.9923 7.97148 22.4433 8.42244 23.0002 8.42244C23.5567 8.42244 24.0077 7.97148 24.0077 7.41458V6.21441H33.6433V7.41458C33.6433 7.97148 34.0947 8.42244 34.6512 8.42244C35.2077 8.42244 35.6587 7.97148 35.6587 7.41458V6.21441H41.4844C42.8644 6.21641 43.983 7.33462 43.9846 8.71469V12.3667H2.01533V8.71469ZM43.9846 41.9754H2.01533V14.3821H43.9846V41.9754Z" fill="#5034A3"/>
<path d="M18.3754 37.7802C19.3608 38.7605 20.9528 38.7605 21.9379 37.7802L35.4471 24.277C36.4254 23.2919 36.4254 21.7019 35.4471 20.7169L33.3086 18.5764C32.324 17.5969 30.7324 17.5969 29.7477 18.5764L20.1572 28.1817L16.2481 24.261C15.2634 23.2819 13.6731 23.2819 12.688 24.261L10.5507 26.3983C9.57164 27.3829 9.57164 28.9737 10.5507 29.9584L18.3754 37.7802ZM11.9788 27.8283L14.114 25.6926C14.3119 25.5007 14.6274 25.5007 14.8252 25.6926L19.4428 30.3282C19.6319 30.5181 19.8886 30.6244 20.156 30.6244C20.4239 30.6244 20.6805 30.5181 20.8696 30.3282L31.1734 20.0092C31.3713 19.8173 31.6859 19.8173 31.8838 20.0092L34.0203 22.1437C34.2134 22.3424 34.2134 22.6582 34.0203 22.8569L20.511 36.3606C20.3131 36.5525 19.9981 36.5525 19.8006 36.3606L11.9788 28.5335C11.7865 28.3352 11.7865 28.0202 11.9788 27.8219V27.8283Z" fill="#5034A3"/>
</svg>
