<svg width="46" height="46" viewBox="0 0 46 46" fill="none" xmlns="http://www.w3.org/2000/svg">
<g clip-path="url(#clip0_2065_277)">
<path d="M41.4835 4.20001H35.6579V2.99987C35.6579 2.44338 35.2069 1.99243 34.6504 1.99243C34.094 1.99243 33.6426 2.44338 33.6426 2.99987V4.20001H24.0071V2.99987C24.0071 2.44338 23.5562 1.99243 22.9997 1.99243C22.4428 1.99243 21.9918 2.44338 21.9918 2.99987V4.20001H12.3564V2.99987C12.3564 2.44338 11.905 1.99243 11.3485 1.99243C10.792 1.99243 10.3411 2.44338 10.3411 2.99987V4.20001H4.5155C2.02288 4.20281 0.00279846 6.22289 0 8.71552V42.983C0 43.5395 0.45135 43.9908 1.00784 43.9908H35.885C36.152 43.9908 36.4083 43.8845 36.5974 43.6954L45.6807 34.6112C45.8846 34.4213 46.0002 34.1555 46.0002 33.8768V8.71552C45.9974 6.22249 43.9765 4.20241 41.4835 4.20001ZM2.01529 8.71552C2.01688 7.33548 3.13547 6.2173 4.5155 6.2157H10.3411V7.41583C10.3411 7.97233 10.792 8.42328 11.3485 8.42328C11.905 8.42328 12.3564 7.97233 12.3564 7.41583V6.2157H21.9918V7.41583C21.9918 7.97233 22.4428 8.42328 22.9997 8.42328C23.5562 8.42328 24.0071 7.97233 24.0071 7.41583V6.2157H33.6426V7.41583C33.6426 7.97233 34.094 8.42328 34.6504 8.42328C35.2069 8.42328 35.6579 7.97233 35.6579 7.41583V6.2157H41.4835C42.8635 6.2173 43.9821 7.33548 43.9837 8.71552V12.3675H2.01529V8.71552ZM38.6127 32.867H35.885C35.3285 32.867 34.8771 33.3179 34.8771 33.8748V36.9159H33.2092V31.5137H38.6127V32.867ZM36.8924 40.5487V34.8823H42.5589L36.8924 40.5487ZM43.9837 32.867H40.6279V30.5059C40.6279 29.9494 40.177 29.4984 39.6205 29.4984H32.2018C31.6453 29.4984 31.194 29.9494 31.194 30.5059V37.9246C31.194 38.4811 31.6453 38.9324 32.2018 38.9324H34.8771V41.9755H2.01529V14.3828H43.9837V32.867Z" fill="#5034A3"/>
<path d="M19.2897 26.8602H26.7084C27.2649 26.8602 27.7162 26.4089 27.7162 25.8524V18.4329C27.7162 17.8764 27.2649 17.425 26.7084 17.425H19.2897C18.7332 17.425 18.2822 17.8764 18.2822 18.4329V25.8524C18.2822 26.4089 18.7332 26.8602 19.2897 26.8602ZM20.2975 19.4403H25.7005V24.8445H20.2975V19.4403Z" fill="#5034A3"/>
<path d="M19.2897 38.9323H26.7084C27.2649 38.9323 27.7162 38.4809 27.7162 37.9244V30.5057C27.7162 29.9492 27.2649 29.4983 26.7084 29.4983H19.2897C18.7332 29.4983 18.2822 29.9492 18.2822 30.5057V37.9244C18.2822 38.4809 18.7332 38.9323 19.2897 38.9323ZM20.2975 31.5136H25.7005V36.9166H20.2975V31.5136Z" fill="#5034A3"/>
<path d="M6.37854 26.8602H13.7972C14.3537 26.8602 14.8051 26.4089 14.8051 25.8524V18.4329C14.8051 17.8764 14.3537 17.425 13.7972 17.425H6.37854C5.82204 17.425 5.37109 17.8764 5.37109 18.4329V25.8524C5.37109 26.4089 5.82204 26.8602 6.37854 26.8602ZM7.38638 19.4403H12.7898V24.8445H7.38638V19.4403Z" fill="#5034A3"/>
<path d="M6.37854 38.9323H13.7972C14.3537 38.9323 14.8051 38.4809 14.8051 37.9244V30.5057C14.8051 29.9492 14.3537 29.4983 13.7972 29.4983H6.37854C5.82204 29.4983 5.37109 29.9492 5.37109 30.5057V37.9244C5.37109 38.4809 5.82204 38.9323 6.37854 38.9323ZM7.38638 31.5136H12.7898V36.9166H7.38638V31.5136Z" fill="#5034A3"/>
<path d="M32.2022 26.8602H39.6209C40.1774 26.8602 40.6283 26.4089 40.6283 25.8524V18.4329C40.6283 17.8764 40.1774 17.425 39.6209 17.425H32.2022C31.6457 17.425 31.1943 17.8764 31.1943 18.4329V25.8524C31.1943 26.4089 31.6457 26.8602 32.2022 26.8602ZM33.2096 19.4403H38.613V24.8445H33.2096V19.4403Z" fill="#5034A3"/>
</g>
<defs>
<clipPath id="clip0_2065_277">
<rect width="46" height="46" fill="white"/>
</clipPath>
</defs>
</svg>
